<svg version="1.1" viewBox="567.192 450.883950617284 617.44 632.4148148148148" xmlns="http://www.w3.org/2000/svg" style="max-height: 500px" width="617.44" height="632.4148148148148"><rect fill="#ffffff00" height="1536" width="2816" y="0" x="0"/>
	<path fill-rule="evenodd" fill="#85d8ff" stroke="none" d="M 883.575 456.010 C 863.054 459.653, 846.249 473.721, 840.006 492.483 C 837.737 499.301, 827.929 548.076, 828.606 549.172 C 828.848 549.564, 831.109 550.194, 833.629 550.572 C 836.149 550.950, 842.451 552.487, 847.633 553.989 C 852.815 555.491, 857.222 556.445, 857.426 556.110 C 857.630 555.774, 858.780 550.775, 859.980 545 C 869.693 498.274, 870.037 497.081, 875.153 492.312 C 878.512 489.181, 885.914 486.047, 890 486.026 C 893.581 486.007, 899.324 487.096, 942 495.880 C 955.475 498.653, 986.525 505.006, 1011 509.997 C 1035.475 514.987, 1057.525 519.496, 1060 520.016 C 1062.475 520.536, 1071.025 522.336, 1079 524.016 C 1086.975 525.697, 1099.350 528.203, 1106.500 529.587 C 1139.089 535.893, 1138.882 535.827, 1145.013 541.973 C 1151.890 548.868, 1153.170 552.957, 1151.864 563.858 C 1151.360 568.061, 1150.716 572.146, 1150.434 572.936 C 1150.151 573.726, 1146.140 593.076, 1141.520 615.936 C 1129.205 676.871, 1117.271 734.708, 1110.454 766.500 C 1109.039 773.100, 1107.487 780.750, 1107.007 783.500 C 1106.526 786.250, 1105.390 791.875, 1104.482 796 C 1101.131 811.229, 1098.922 821.630, 1098.003 826.500 C 1097.485 829.250, 1096.798 832.850, 1096.478 834.500 C 1096.158 836.150, 1095.247 841.032, 1094.453 845.349 C 1093.659 849.666, 1091.635 859.341, 1089.955 866.849 C 1088.274 874.357, 1083.768 896.250, 1079.941 915.500 C 1072.386 953.504, 1071.323 956.711, 1064.170 963.053 C 1055.565 970.683, 1050.711 970.586, 1011 961.985 C 984.706 956.289, 953.312 950, 951.178 950 C 950.180 950, 947.594 951.611, 945.432 953.580 C 943.269 955.549, 937.042 961.035, 931.593 965.770 C 923.260 973.012, 921.989 974.493, 923.593 975.091 C 926.428 976.146, 936.598 978.302, 965.500 983.976 C 979.800 986.784, 998.475 990.589, 1007 992.433 C 1039.908 999.552, 1045.081 1000.245, 1056.004 999 C 1072.753 997.089, 1090.909 984.358, 1097.963 969.578 C 1101.330 962.523, 1102.495 958.092, 1107.185 934.500 C 1111.236 914.122, 1119.045 875.986, 1122.543 859.500 C 1128.036 833.614, 1131.100 818.778, 1141.952 765.500 C 1147.441 738.550, 1154.012 706.600, 1156.553 694.500 C 1159.094 682.400, 1164.743 654.950, 1169.107 633.500 C 1173.470 612.050, 1178.188 588.875, 1179.590 582 C 1184.399 558.420, 1183.755 547.372, 1176.738 533.120 C 1168.494 516.373, 1154.256 506.953, 1130.500 502.528 C 1117.810 500.163, 1083.775 493.359, 1040 484.433 C 1019.375 480.227, 999.350 476.183, 995.500 475.445 C 988.209 474.048, 976.230 471.573, 947.500 465.529 C 931.865 462.240, 918.202 459.474, 905.500 457.027 C 897.417 455.470, 888.854 455.073, 883.575 456.010 M 770.500 576.189 C 736.122 579.442, 704.850 589.487, 678.309 605.802 C 617.544 643.155, 580.892 708.762, 581.033 779.926 C 581.051 789.042, 581.496 799.650, 582.022 803.500 C 582.548 807.350, 583.261 812.975, 583.608 816 C 583.954 819.025, 584.852 823.300, 585.604 825.500 C 586.356 827.700, 586.977 830.316, 586.985 831.314 C 587.015 835.001, 595.385 857.843, 600.611 868.500 C 614.462 896.743, 625.545 911.467, 651.580 936.214 C 655.464 939.906, 659.961 945.306, 661.571 948.214 L 664.500 953.500 664.585 973.500 C 664.631 984.500, 664.057 1009.025, 663.309 1028 C 661.792 1066.505, 661.891 1067.441, 668.206 1073.899 C 673.118 1078.923, 676.718 1080.409, 684.092 1080.457 C 690.083 1080.496, 691.155 1080.170, 695.870 1076.872 C 702.022 1072.569, 709.588 1066.127, 719.939 1056.381 C 724.098 1052.466, 736.275 1041.490, 747 1031.990 C 757.725 1022.490, 771.675 1010.083, 778 1004.419 C 797.719 986.760, 796.800 987.297, 811.070 985.090 C 836.866 981.102, 861.108 973.874, 876 965.733 C 903.219 950.853, 916.954 940.646, 933.413 923.068 C 936.211 920.080, 939.190 916.915, 940.033 916.035 C 970.281 884.454, 991 829.864, 991 781.749 C 991 750.040, 982.444 714.600, 968.005 686.500 C 962.525 675.835, 960.410 672.384, 951.086 658.888 C 931.195 630.096, 897.217 604.012, 861.318 589.975 C 832.724 578.794, 798.260 573.562, 770.500 576.189 M 1456.604 625.038 C 1452.855 626.160, 1448.121 630.640, 1446.377 634.718 C 1444.328 639.507, 1444.380 805.412, 1446.434 815.099 C 1449.375 828.974, 1458.874 842.391, 1469.239 847.309 C 1474.517 849.814, 1486.236 852.001, 1494.315 851.990 C 1504.537 851.975, 1509.554 849.339, 1513.329 842 C 1520.465 828.124, 1511.295 813.761, 1496.288 815.310 C 1489.891 815.970, 1486.918 814.566, 1484.199 809.602 C 1482.649 806.773, 1482.456 798.984, 1482 721 L 1481.500 635.500 1478.678 631.341 C 1474.526 625.224, 1465.037 622.515, 1456.604 625.038 M 2117 624.700 C 2111.279 626.770, 2108.656 628.731, 2106.352 632.662 L 2103.772 637.064 2103.636 738.443 L 2103.500 839.822 2106.514 844.113 C 2110.613 849.950, 2114.557 852.061, 2121.670 852.226 C 2130.307 852.427, 2137.451 848.205, 2140.052 841.362 C 2140.574 839.991, 2141 829.083, 2141 817.122 L 2141 795.374 2146.188 790.937 C 2149.042 788.497, 2151.716 786.500, 2152.131 786.500 C 2152.903 786.500, 2171.134 808.161, 2178.673 818.035 C 2202.662 849.452, 2207.350 853.529, 2218.657 852.809 C 2228.697 852.170, 2235 846.003, 2235 836.820 C 2235 829.989, 2233.413 826.974, 2223.511 815 C 2218.736 809.225, 2212.447 801.575, 2209.536 798 C 2206.625 794.425, 2203.401 790.543, 2202.372 789.373 C 2201.342 788.204, 2198.700 785.081, 2196.500 782.435 C 2194.300 779.788, 2189.670 774.287, 2186.210 770.209 L 2179.920 762.795 2184.255 758.648 C 2190.400 752.767, 2207.667 737.044, 2213 732.474 C 2233.078 715.266, 2236.908 708.166, 2231.883 697.474 C 2229.011 691.365, 2224.725 688.462, 2216.975 687.378 C 2209.925 686.392, 2203.512 691.365, 2169.048 724.543 C 2147.779 745.018, 2143.402 749, 2142.160 749 C 2141.294 749, 2141 734.916, 2141 693.460 C 2141 640.106, 2140.922 637.768, 2139.023 634.044 C 2137.935 631.913, 2135.753 629.248, 2134.173 628.123 C 2129.852 625.046, 2120.949 623.272, 2117 624.700 M 1285.101 626.648 C 1279.668 628.025, 1273.610 634.145, 1272.022 639.860 C 1271.373 642.197, 1271.009 678.086, 1271.006 740.128 C 1271 844.962, 1270.791 840.798, 1276.346 846.845 C 1283.370 854.492, 1299.364 853.709, 1305.902 845.397 C 1309.644 840.640, 1310.114 836.080, 1309.935 806.195 L 1309.764 777.500 1336.132 776.942 C 1366.273 776.305, 1370.948 775.503, 1385.500 768.476 C 1404.618 759.243, 1418.123 741.536, 1423.528 718.616 C 1425.178 711.618, 1425.502 690.229, 1424.028 685.571 C 1423.494 683.882, 1422.089 679.350, 1420.905 675.500 C 1417.279 663.700, 1413.282 657.216, 1403.951 648 C 1393.369 637.547, 1382.530 631.216, 1369.500 627.878 C 1360.954 625.688, 1358.716 625.570, 1325.101 625.527 C 1301.290 625.496, 1288.195 625.863, 1285.101 626.648 M 1310.500 661.499 C 1309.532 661.983, 1309.482 739.816, 1310.449 740.783 C 1311.219 741.553, 1345.342 741.734, 1352.092 741.004 C 1369.169 739.157, 1382.316 727.173, 1385.885 710.201 C 1390.342 689.012, 1380.387 670.531, 1361 664 C 1355.684 662.209, 1351.673 661.842, 1333.145 661.453 C 1321.240 661.204, 1311.050 661.224, 1310.500 661.499 M 1788.058 689.088 C 1771.796 691.046, 1759.107 696.477, 1745.162 707.448 C 1734.088 716.159, 1724.747 731.113, 1719.831 748 C 1717.693 755.344, 1717.640 757.006, 1717.269 827.911 C 1716.890 900.493, 1716.934 901.695, 1720.219 908.656 C 1720.779 909.841, 1723.471 912.027, 1726.202 913.514 C 1730.504 915.855, 1732.062 916.166, 1737.856 915.838 C 1745.925 915.382, 1749.859 912.989, 1752.914 906.677 C 1754.903 902.568, 1755 900.791, 1755 868.351 C 1755 849.641, 1755.295 834.038, 1755.655 833.678 C 1756.016 833.317, 1758.603 834.973, 1761.405 837.356 C 1768.737 843.592, 1773.445 846.326, 1782.500 849.604 C 1789.973 852.309, 1791.456 852.497, 1805 852.457 C 1820.552 852.412, 1828.621 850.747, 1839.173 845.409 C 1857.153 836.312, 1871.946 819.307, 1876.935 802 C 1877.648 799.525, 1878.595 796.375, 1879.039 795 C 1882.542 784.153, 1882.747 762.003, 1879.465 749 C 1873.576 725.666, 1856.779 705.867, 1833.853 695.241 C 1822.658 690.052, 1802.520 687.346, 1788.058 689.088 M 1978.376 689.088 C 1967.556 689.915, 1959.989 691.965, 1951.060 696.491 C 1927.362 708.503, 1914.447 725.307, 1907.882 752.670 C 1904.725 765.831, 1905.620 784.665, 1910.038 798 C 1916.842 818.538, 1930.862 835.272, 1949 844.504 C 1950.925 845.484, 1953.350 846.714, 1954.389 847.238 C 1961.923 851.037, 1982.172 854.375, 1992.890 853.585 C 2025.015 851.218, 2050.291 835.245, 2062.646 809.503 C 2069.493 795.237, 2070.508 790.169, 2070.451 770.500 C 2070.395 751.159, 2068.777 744.182, 2060.707 728.500 C 2050.132 707.947, 2024.036 691.143, 2000 689.407 C 1996.425 689.149, 1992.150 688.815, 1990.500 688.664 C 1988.850 688.514, 1983.394 688.705, 1978.376 689.088 M 1580.322 690.992 C 1564.444 695.154, 1547.391 706.219, 1537.424 718.826 C 1529.890 728.357, 1523.940 741.862, 1521.488 755 C 1517.239 777.760, 1521.573 800.618, 1533.550 818.618 C 1547.394 839.424, 1567.289 851.146, 1592.471 853.331 C 1610.489 854.895, 1632.504 847.896, 1642.811 837.326 C 1645.350 834.722, 1647 835.030, 1647 838.109 C 1647 843.459, 1653.383 850.218, 1660.158 852.043 C 1670.645 854.867, 1681.324 848.937, 1684.062 838.770 C 1685.917 831.882, 1684.726 759.244, 1682.623 751 C 1677.216 729.805, 1665.870 712.943, 1649.913 702.390 C 1642.729 697.639, 1632.976 693, 1630.171 693 C 1629.197 693, 1627.973 692.601, 1627.450 692.113 C 1623.792 688.700, 1591.957 687.942, 1580.322 690.992 M 1792.887 723.097 C 1776.676 724.840, 1762.196 737.339, 1756.793 754.252 C 1753.699 763.937, 1753.995 779.300, 1757.453 788.500 C 1764.427 807.057, 1777.802 817.235, 1797.128 818.693 C 1809.838 819.653, 1823.585 814.569, 1831.176 806.102 C 1842.401 793.581, 1846.839 775.471, 1843.033 757.717 C 1839.237 740.017, 1821.885 724.226, 1805.002 723.109 C 1802.528 722.945, 1800.278 722.716, 1800.002 722.599 C 1799.726 722.482, 1796.524 722.706, 1792.887 723.097 M 1983.917 722.390 C 1983.688 722.604, 1981.518 723.051, 1979.095 723.382 C 1963.693 725.489, 1947.719 741.662, 1944.115 758.799 C 1939.145 782.425, 1949.746 805.828, 1969.698 815.278 C 1976.136 818.328, 1977.115 818.500, 1988 818.495 C 2008.141 818.486, 2020.027 811.794, 2028.018 795.964 C 2041.122 770.005, 2031.314 736.238, 2008 727.045 C 2006.075 726.286, 2004.036 725.317, 2003.468 724.891 C 2002.032 723.814, 1984.757 721.604, 1983.917 722.390 M 1589.215 724.546 C 1556.457 734.849, 1546.012 780.769, 1570.732 805.797 C 1581.488 816.688, 1601.083 821.835, 1615.330 817.513 C 1625.417 814.453, 1637.353 805.019, 1641.649 796.712 C 1654.073 772.687, 1645.657 739.095, 1624.500 728.260 C 1614.344 723.058, 1599.058 721.449, 1589.215 724.546 M 1379.500 767 C 1379.160 767.550, 1379.359 768, 1379.941 768 C 1380.523 768, 1381 767.550, 1381 767 C 1381 766.450, 1380.802 766, 1380.559 766 C 1380.316 766, 1379.840 766.450, 1379.500 767 M 1543.543 826.931 C 1543.226 827.443, 1543.350 828.098, 1543.817 828.387 C 1544.284 828.676, 1544.667 828.257, 1544.667 827.456 C 1544.667 825.770, 1544.351 825.623, 1543.543 826.931 M 1016.349 858.138 C 1014.918 859.939, 1009.157 890.636, 1009.995 891.993 C 1010.354 892.572, 1011.739 893.255, 1013.073 893.509 C 1034.257 897.547, 1038.538 899.431, 1041.515 906.033 C 1043.084 909.513, 1043.161 910.702, 1042.119 915.360 C 1039.756 925.919, 1030.259 930.724, 1021.044 926.023 C 1015.452 923.169, 1013 919.247, 1013 913.152 C 1013 909.079, 1012.574 907.815, 1010.777 906.557 C 1002.936 901.065, 998.125 911.041, 1003.234 922.200 C 1009.199 935.230, 1025.817 941.566, 1038.500 935.647 C 1051.801 929.440, 1057.102 913.904, 1050.513 900.437 C 1046.752 892.750, 1041.100 889.175, 1028.765 886.678 C 1020.865 885.079, 1020.241 883.982, 1022.497 875.648 C 1024.611 867.840, 1024.191 867.961, 1039 870.912 C 1055.259 874.153, 1056.806 874.231, 1058.067 871.875 C 1059.483 869.229, 1058.499 865.289, 1056.248 864.593 C 1051.796 863.218, 1026.961 857.911, 1022.466 857.375 C 1018.828 856.942, 1017.131 857.153, 1016.349 858.138"/>
</svg>